<svg xmlns="http://www.w3.org/2000/svg" height="512pt" version="1.1" viewBox="0 0 512 512" width="512pt">
<g id="surface1">
<path d="M 512 256 C 512 397.386719 397.386719 512 256 512 C 114.613281 512 0 397.386719 0 256 C 0 114.613281 114.613281 0 256 0 C 397.386719 0 512 114.613281 512 256 Z M 512 256 " style=" stroke:none;fill-rule:nonzero;fill:rgb(38.039216%,20%,58.039216%);fill-opacity:1;" />
<path d="M 256.382812 511.996094 C 397.589844 511.789062 512 397.257812 512 256 C 512 250.769531 511.824219 245.585938 511.515625 240.433594 L 347.851562 76.769531 L 167.097656 309.402344 L 262.855469 405.160156 L 191.617188 447.230469 Z M 256.382812 511.996094 " style=" stroke:none;fill-rule:nonzero;fill:rgb(29.411765%,10.588235%,47.843137%);fill-opacity:1;" />
<path d="M 387.078125 213.09375 C 387.078125 176.476562 372.058594 143.371094 347.851562 76.769531 L 164.148438 76.769531 C 139.941406 143.371094 124.921875 176.476562 124.921875 213.09375 C 124.921875 280.402344 175.65625 335.855469 240.972656 343.3125 L 240.972656 417.117188 L 191.617188 417.117188 L 191.617188 447.230469 L 320.382812 447.230469 L 320.382812 417.117188 L 271.027344 417.117188 L 271.027344 343.308594 C 336.34375 335.855469 387.078125 280.402344 387.078125 213.09375 Z M 387.078125 213.09375 " style=" stroke:none;fill-rule:nonzero;fill:rgb(100%,100%,100%);fill-opacity:1;" />
<path d="M 387.078125 213.09375 C 387.078125 176.476562 372.058594 143.371094 347.851562 76.769531 L 255.761719 76.769531 L 255.761719 447.230469 L 320.382812 447.230469 L 320.382812 417.117188 L 271.027344 417.117188 L 271.027344 343.308594 C 336.34375 335.855469 387.078125 280.402344 387.078125 213.09375 Z M 387.078125 213.09375 " style=" stroke:none;fill-rule:nonzero;fill:rgb(91.372549%,92.941176%,96.078431%);fill-opacity:1;" />
<path d="M 303.765625 138.820312 C 250.253906 147.90625 198.707031 173.675781 148.164062 158.871094 C 141.515625 179.171875 137.804688 195.574219 137.804688 212.835938 C 137.804688 278.113281 190.722656 331.027344 256 331.027344 C 321.277344 331.027344 374.195312 278.113281 374.195312 212.835938 C 374.195312 192.75 369.175781 173.828125 360.335938 148.574219 C 343.519531 139.589844 324.335938 135.390625 303.765625 138.820312 Z M 303.765625 138.820312 " style=" stroke:none;fill-rule:nonzero;fill:rgb(100%,0%,40.784314%);fill-opacity:1;" />
<path d="M 360.335938 148.574219 C 343.519531 139.59375 324.335938 135.390625 303.765625 138.820312 C 287.59375 141.566406 271.601562 145.835938 255.761719 150.050781 L 255.761719 331.027344 C 255.84375 331.027344 255.921875 331.027344 256 331.027344 C 321.277344 331.027344 374.195312 278.113281 374.195312 212.835938 C 374.195312 192.75 369.175781 173.828125 360.335938 148.574219 Z M 360.335938 148.574219 " style=" stroke:none;fill-rule:nonzero;fill:rgb(89.803922%,5.490196%,43.921569%);fill-opacity:1;" />
</g>
</svg>